<svg width="148" height="33" viewBox="0 0 148 33" fill="none" xmlns="http://www.w3.org/2000/svg">
<path d="M54.5575 24.6954C54.576 24.7326 54.5856 24.7735 54.5856 24.8151C54.5856 24.9634 54.4654 25.0837 54.317 25.0837H53.0659C52.6701 25.0837 52.3089 24.8581 52.1352 24.5025L50.2587 20.661C50.085 20.3054 49.7238 20.0798 49.328 20.0798L39.789 20.0798C39.3932 20.0798 39.032 20.3054 38.8583 20.661L36.9818 24.5025C36.8081 24.8581 36.4469 25.0837 36.0511 25.0837H34.8C34.6516 25.0837 34.5314 24.9634 34.5314 24.8151C34.5314 24.7735 34.541 24.7326 34.5595 24.6954L43.1061 7.52243C43.2812 7.17058 43.6404 6.94815 44.0334 6.94815H45.0836C45.4766 6.94815 45.8358 7.17058 46.0109 7.52242L54.5575 24.6954ZM47.3631 18.1246C48.131 18.1246 48.6319 17.3183 48.2917 16.6299L45.487 10.9555C45.1069 10.1864 44.0101 10.1864 43.63 10.9555L40.8253 16.6299C40.4851 17.3183 40.986 18.1246 41.7539 18.1246H47.3631Z" fill="#3568DD"/>
<path d="M58.8698 6.94815C59.4419 6.94815 59.9056 7.41187 59.9056 7.98391V24.0479C59.9056 24.62 59.4419 25.0837 58.8698 25.0837H58.8026C58.2306 25.0837 57.7668 24.62 57.7668 24.0479V7.98391C57.7668 7.41187 58.2306 6.94815 58.8026 6.94815H58.8698Z" fill="#3568DD"/>
<path d="M82.6771 12.5326C82.6771 14.0623 82.1031 15.2879 80.955 16.2094C79.8069 17.1125 78.7544 17.5641 74.838 17.5641C74.7846 17.5641 74.7565 17.6274 74.7923 17.6671L81.1369 24.6835C81.1767 24.7276 81.1987 24.7848 81.1987 24.8442C81.1987 24.9764 81.0915 25.0837 80.9592 25.0837H79.2128C78.9209 25.0837 78.6425 24.9605 78.4462 24.7445L72.2298 17.9033C72.0335 17.6872 71.7551 17.5641 71.4632 17.5641H68.325C67.7529 17.5641 67.2892 18.0278 67.2892 18.5998V24.0479C67.2892 24.62 66.8255 25.0837 66.2534 25.0837H66.214C65.642 25.0837 65.1782 24.62 65.1782 24.0479V7.98391C65.1782 7.41187 65.642 6.94815 66.214 6.94815L76.2608 6.94815C78.2607 6.94815 79.8254 7.41812 80.955 8.35807C82.1031 9.27959 82.6771 10.5513 82.6771 12.1732V12.5326ZM76.2053 15.6842C77.5571 15.6842 78.6125 15.3985 79.3717 14.8272C80.1495 14.2558 80.5383 13.4633 80.5383 12.4496V12.0902C80.5383 11.0766 80.1587 10.2841 79.3995 9.71271C78.6403 9.14137 77.5756 8.85569 76.2053 8.85569H68.325C67.7529 8.85569 67.2892 9.31942 67.2892 9.89146V14.6484C67.2892 15.2204 67.7529 15.6842 68.325 15.6842L76.2053 15.6842Z" fill="#3568DD"/>
<path d="M95.278 6.94815C98.5001 6.94815 100.963 7.70379 102.666 9.21509C104.37 10.7264 105.222 12.9196 105.222 15.7947V16.2647C105.222 19.1399 104.37 21.3331 102.666 22.8444C100.981 24.3373 98.5186 25.0837 95.278 25.0837H88.0366C87.4645 25.0837 87.0008 24.62 87.0008 24.0479V7.98391C87.0008 7.41187 87.4645 6.94815 88.0366 6.94815L95.278 6.94815ZM95.278 23.1761C97.852 23.1761 99.787 22.6048 101.083 21.4621C102.398 20.301 103.055 18.5777 103.055 16.2924V15.7671C103.055 13.5002 102.398 11.7861 101.083 10.625C99.7685 9.44547 97.8242 8.85569 95.2503 8.85569H90.1475C89.5755 8.85569 89.1118 9.31942 89.1118 9.89146V22.1404C89.1118 22.7124 89.5755 23.1761 90.1475 23.1761H95.278Z" fill="#3568DD"/>
<path d="M126.251 24.6954C126.269 24.7326 126.279 24.7735 126.279 24.8151C126.279 24.9634 126.159 25.0837 126.01 25.0837H124.759C124.364 25.0837 124.002 24.8581 123.829 24.5025L121.952 20.661C121.778 20.3054 121.417 20.0798 121.021 20.0798H111.482C111.087 20.0798 110.725 20.3054 110.552 20.661L108.675 24.5025C108.501 24.8581 108.14 25.0837 107.745 25.0837H106.493C106.345 25.0837 106.225 24.9634 106.225 24.8151C106.225 24.7735 106.234 24.7326 106.253 24.6954L114.8 7.52243C114.975 7.17058 115.334 6.94815 115.727 6.94815H116.777C117.17 6.94815 117.529 7.17058 117.704 7.52242L126.251 24.6954ZM119.057 18.1246C119.824 18.1246 120.325 17.3183 119.985 16.6299L117.18 10.9555C116.8 10.1864 115.704 10.1864 115.323 10.9555L112.519 16.6299C112.179 17.3183 112.679 18.1246 113.447 18.1246H119.057Z" fill="#3568DD"/>
<path d="M137.486 25.3878C135.412 25.3878 133.606 25.0192 132.069 24.282C130.533 23.5263 129.347 22.4573 128.514 21.0751C127.681 19.6928 127.264 18.0801 127.264 16.2371V15.8224C127.264 13.9609 127.681 12.339 128.514 10.9568C129.347 9.57448 130.533 8.51473 132.069 7.77751C133.606 7.02187 135.412 6.64404 137.486 6.64404C139.541 6.64404 141.337 7.02187 142.874 7.77751C144.411 8.53316 145.596 9.60213 146.43 10.9844C147.263 12.3667 147.68 13.9794 147.68 15.8224V16.2371C147.68 18.0801 147.263 19.6928 146.43 21.0751C145.596 22.4573 144.411 23.5263 142.874 24.282C141.337 25.0192 139.541 25.3878 137.486 25.3878ZM137.486 23.4249C140.004 23.4249 141.967 22.7891 143.374 21.5174C144.8 20.2457 145.513 18.4948 145.513 16.2647V15.7947C145.513 13.5647 144.8 11.8138 143.374 10.5421C141.948 9.25195 139.986 8.60688 137.486 8.60688C134.967 8.60688 132.986 9.25195 131.542 10.5421C130.116 11.8138 129.403 13.5647 129.403 15.7947V16.2647C129.403 18.4948 130.116 20.2457 131.542 21.5174C132.986 22.7891 134.967 23.4249 137.486 23.4249Z" fill="#3568DD"/>
<path fill-rule="evenodd" clip-rule="evenodd" d="M1.20015 31.9694C1.01145 32.0844 0.765671 32.0311 0.64162 31.8482L0.0714807 31.0075C-0.0525697 30.8246 -0.0108909 30.5769 0.163411 30.441C1.9048 29.0835 3.33495 27.5518 4.45818 25.9105C8.61481 19.8366 8.61481 12.1933 4.45818 6.1195C3.33495 4.47819 1.9048 2.94643 0.163412 1.58899C-0.0108903 1.45312 -0.0525688 1.20533 0.0714816 1.02243L0.641621 0.181796C0.765672 -0.00110744 1.01145 -0.054442 1.20015 0.0605914L24.5245 14.279C25.8243 15.0714 25.8243 16.9586 24.5245 17.751L1.20015 31.9694ZM0.392821 31.4033L0.396851 31.4008C2.35535 29.9284 3.95795 28.2425 5.20465 26.4208C9.57182 20.0393 9.57182 11.9906 5.20465 5.60917C3.95797 3.78747 2.3554 2.10163 0.396941 0.629223L0.392822 0.626712C1.65943 1.57861 2.77724 2.61977 3.74625 3.72921C4.27672 4.33655 4.7626 4.96435 5.20388 5.60917C9.57105 11.9906 9.57105 20.0393 5.20388 26.4208C4.7626 27.0656 4.27672 27.6934 3.74625 28.3008C2.77724 29.4102 1.65943 30.4514 0.392821 31.4033Z" fill="url(#paint0_linear_302_2736)"/>
<defs>
<linearGradient id="paint0_linear_302_2736" x1="28.4756" y1="16.2987" x2="-9.3778" y2="16.2987" gradientUnits="userSpaceOnUse">
<stop stop-color="#3568DD"/>
<stop offset="1" stop-color="#3568DD" stop-opacity="0.6"/>
</linearGradient>
</defs>
</svg>
