<svg width="24" height="24" viewBox="0 0 24 24" fill="none" xmlns="http://www.w3.org/2000/svg">
<path d="M12.7171 12.0569C12.7171 15.0366 10.318 17.4523 7.35847 17.4523C4.39893 17.4523 2 15.0374 2 12.0569C2 9.07644 4.39911 6.66168 7.35847 6.66168C10.3178 6.66168 12.7171 9.07717 12.7171 12.0569ZM18.5956 12.0569C18.5956 14.862 17.396 17.1357 15.9163 17.1357C14.4366 17.1357 13.237 14.8612 13.237 12.0569C13.237 9.25258 14.4366 6.97811 15.9163 6.97811C17.396 6.97811 18.5956 9.25258 18.5956 12.0569ZM21 12.0569C21 14.5701 20.578 16.6073 20.0576 16.6073C19.5372 16.6073 19.1153 14.5694 19.1153 12.0569C19.1153 9.54443 19.5372 7.50651 20.0578 7.50651C20.5784 7.50651 21 9.54389 21 12.0569Z" stroke="#1D1D1D" stroke-width="1.5" stroke-linejoin="round"/>
</svg>
