<svg width="24" height="24" viewBox="0 0 24 24" fill="none" xmlns="http://www.w3.org/2000/svg">
<path d="M7.74375 12.5457C7.59435 12.7721 7.51461 13.0384 7.51461 13.3107C7.51461 13.4915 7.54977 13.6706 7.6181 13.8377C7.68643 14.0047 7.78658 14.1565 7.91283 14.2844C8.03909 14.4123 8.18897 14.5137 8.35393 14.5829C8.51888 14.6521 8.69568 14.6877 8.87423 14.6877C9.14314 14.6877 9.40601 14.607 9.6296 14.4556C9.85319 14.3043 10.0275 14.0893 10.1304 13.8377C10.2333 13.586 10.2602 13.3092 10.2077 13.0421C10.1553 12.7749 10.0258 12.5296 9.83564 12.337C9.64549 12.1444 9.40322 12.0133 9.13948 11.9601C8.87574 11.907 8.60237 11.9343 8.35393 12.0385C8.10549 12.1427 7.89314 12.3192 7.74375 12.5457Z" stroke="#1D1D1D" stroke-width="1.5" stroke-linejoin="round"/>
<path d="M14.4139 14.5107C14.6375 14.662 14.9004 14.7428 15.1693 14.7428L15.1557 14.7979C15.3401 14.7999 15.5229 14.7639 15.6931 14.6921C15.8633 14.6203 16.0173 14.5142 16.1458 14.3803C16.2742 14.2463 16.3744 14.0873 16.4403 13.9129C16.5062 13.7385 16.5363 13.5524 16.5289 13.3658C16.5289 13.0934 16.4492 12.8272 16.2998 12.6008C16.1504 12.3743 15.938 12.1978 15.6896 12.0936C15.4412 11.9894 15.1678 11.9621 14.9041 12.0152C14.6403 12.0684 14.3981 12.1995 14.2079 12.3921C14.0178 12.5847 13.8883 12.83 13.8358 13.0971C13.7833 13.3643 13.8103 13.6411 13.9132 13.8927C14.0161 14.1444 14.1903 14.3594 14.4139 14.5107Z" stroke="#1D1D1D" stroke-width="1.5" stroke-linejoin="round"/>
<path fill-rule="evenodd" clip-rule="evenodd" d="M20.7527 10.8532C20.9725 11.1709 21.0969 11.5461 21.1109 11.9337C21.1167 12.3131 21.0163 12.6864 20.8214 13.0105C20.6266 13.3346 20.3451 13.5962 20.0096 13.7651C20.0249 13.9668 20.0249 14.1693 20.0096 14.371C20.0096 17.4555 16.461 19.9617 12.083 19.9617C7.70495 19.9617 4.15633 17.4555 4.15633 14.371C4.14102 14.1693 4.14102 13.9668 4.15633 13.7651C3.89482 13.6434 3.66256 13.4656 3.47565 13.244C3.28873 13.0223 3.15164 12.7622 3.07386 12.4816C2.99609 12.201 2.97949 11.9066 3.02522 11.6188C3.07095 11.331 3.17792 11.0568 3.33871 10.815C3.4995 10.5733 3.71026 10.3699 3.9564 10.2188C4.20253 10.0678 4.47815 9.97274 4.76415 9.9403C5.05016 9.90787 5.33971 9.9388 5.61273 10.031C5.88576 10.1231 6.13573 10.2743 6.34533 10.4741C7.91199 9.39795 9.75511 8.80922 11.6479 8.78032L12.654 4.00208C12.6653 3.94676 12.6873 3.89427 12.7188 3.84764C12.7503 3.80101 12.7906 3.76117 12.8374 3.73043C12.8842 3.69969 12.9365 3.67866 12.9914 3.66856C13.0463 3.65846 13.1026 3.65949 13.1571 3.6716L16.4881 4.34633C16.6508 4.06327 16.9078 3.8482 17.2129 3.73973C17.518 3.63126 17.8514 3.63648 18.153 3.75448C18.4547 3.87247 18.705 4.09549 18.8589 4.38352C19.0129 4.67155 19.0604 5.00572 18.993 5.32604C18.9256 5.64637 18.7476 5.93188 18.4911 6.13131C18.2346 6.33075 17.9163 6.43105 17.5934 6.41422C17.2704 6.3974 16.9639 6.26453 16.729 6.03949C16.494 5.81444 16.346 5.51195 16.3114 5.18631L13.4018 4.56666L12.518 8.86294C14.3878 8.90356 16.2059 9.49185 17.7526 10.5567C18.0289 10.2881 18.376 10.1062 18.7521 10.0329C19.1281 9.95962 19.5171 9.99808 19.8721 10.1436C20.227 10.2892 20.5329 10.5356 20.7527 10.8532Z" stroke="#1D1D1D" stroke-width="1.5" stroke-linejoin="round"/>
<path fill-rule="evenodd" clip-rule="evenodd" d="M8.9985 16.8403C8.99328 16.836 8.98666 16.8338 8.97992 16.8341C8.97317 16.8344 8.96679 16.8373 8.96202 16.8421C8.95725 16.847 8.95442 16.8534 8.95409 16.8603L8.95406 16.8617C9.84635 17.5241 10.935 17.8603 12.0417 17.8138C12.0511 17.8134 12.0605 17.8134 12.0698 17.8138C13.1843 17.8606 14.2804 17.5194 15.1762 16.8477C15.1728 16.8445 15.1689 16.8419 15.1646 16.8401C15.1598 16.838 15.1546 16.8369 15.1494 16.8368C15.1388 16.8366 15.1286 16.8408 15.1211 16.8483C15.1089 16.8603 15.0958 16.8714 15.0819 16.8815C14.1984 17.5234 13.1261 17.8423 12.0405 17.7864C10.9561 17.8316 9.88852 17.5021 9.0131 16.8518L8.9985 16.8403Z" stroke="#1D1D1D" stroke-width="1.5" stroke-linejoin="round"/>
</svg>
