<svg width="24" height="24" viewBox="0 0 24 24" fill="none" xmlns="http://www.w3.org/2000/svg">
<path fill-rule="evenodd" clip-rule="evenodd" d="M13.4804 7.54563C12.2265 8.10501 9.72052 9.2628 5.96243 11.019C5.35217 11.2793 5.03249 11.5339 5.00339 11.7829C4.95421 12.2037 5.44551 12.3694 6.11453 12.595C6.20553 12.6257 6.29982 12.6575 6.39648 12.6912C7.05469 12.9207 7.9401 13.1892 8.40039 13.1999C8.81791 13.2095 9.28392 13.0249 9.79841 12.646C13.3097 10.1037 15.1223 8.81874 15.236 8.79103C15.3163 8.77149 15.4276 8.74692 15.503 8.81878C15.5783 8.89064 15.5709 9.02673 15.5629 9.06324C15.5143 9.28578 13.5857 11.2089 12.5877 12.204C12.2766 12.5143 12.0559 12.7343 12.0108 12.7846C11.9098 12.8972 11.8068 13.0037 11.7078 13.106C11.0963 13.7383 10.6377 14.2125 11.7332 14.9867C12.2596 15.3588 12.6808 15.6665 13.1011 15.9735C13.56 16.3087 14.0178 16.6431 14.6101 17.0595C14.761 17.1656 14.9051 17.2758 15.0454 17.3831C15.5796 17.7915 16.0594 18.1585 16.6522 18.1C16.9967 18.066 17.3525 17.7185 17.5332 16.6824C17.9603 14.2336 18.7998 8.92779 18.9938 6.74141C19.0108 6.54985 18.9894 6.3047 18.9722 6.19708C18.9551 6.08946 18.9192 5.93613 18.7887 5.82263C18.6343 5.6882 18.3958 5.65985 18.2892 5.66177C17.8043 5.67103 17.0604 5.94847 13.4804 7.54563Z" stroke="#1D1D1D" stroke-width="1.5" stroke-linejoin="round"/>
</svg>
