<svg width="24" height="24" viewBox="0 0 24 24" fill="none" xmlns="http://www.w3.org/2000/svg">
<path d="M20 7.20136C19.4116 7.46209 18.7795 7.63825 18.115 7.71788C18.7929 7.31199 19.313 6.66794 19.5582 5.90127C18.924 6.27755 18.2214 6.55096 17.4738 6.69753C16.8748 6.06052 16.0222 5.66168 15.078 5.66168C13.2656 5.66168 11.7956 7.1316 11.7956 8.9454C11.7956 9.20189 11.8252 9.45134 11.8802 9.69234C9.15106 9.55493 6.73337 8.24778 5.11407 6.26205C4.8322 6.74827 4.67013 7.31199 4.67013 7.91236C4.67013 9.05109 5.25007 10.0566 6.13019 10.645C5.59183 10.6274 5.08588 10.4801 4.64335 10.2342V10.2765C4.64335 11.8669 5.77433 13.1938 7.27667 13.4954C7.00044 13.5701 6.71083 13.6095 6.41205 13.6095C6.20065 13.6095 5.99419 13.5898 5.79406 13.5518C6.21193 14.8554 7.42394 15.8053 8.86074 15.8306C7.73681 16.7114 6.32115 17.2364 4.78358 17.2364C4.51863 17.2364 4.2572 17.2209 4 17.1906C5.45301 18.1229 7.17801 18.6655 9.03127 18.6655C15.0702 18.6655 18.3715 13.6638 18.3715 9.32591C18.3715 9.18498 18.368 9.04264 18.3617 8.90171C19.0029 8.43804 19.5596 7.86092 19.9986 7.20348L20 7.20136Z" stroke="#1D1D1D" stroke-width="1.5" stroke-linejoin="round"/>
</svg>
