<svg xmlns="http://www.w3.org/2000/svg" width="21" height="20" viewBox="0 0 21 20" fill="none">
    <path d="M5.04883 3C4.2204 3 3.54883 3.67157 3.54883 4.5V14.5C3.54883 15.8807 4.66812 17 6.04883 17H15.5488C16.6534 17 17.5488 16.1046 17.5488 15V7C17.5488 6.25972 17.1466 5.61337 16.5488 5.26756V5C16.5488 3.89543 15.6534 3 14.5488 3H5.04883ZM15.5488 5H5.04883C4.77269 5 4.54883 4.77614 4.54883 4.5C4.54883 4.22386 4.77269 4 5.04883 4H14.5488C15.1011 4 15.5488 4.44772 15.5488 5ZM14.0488 11H15.0488C15.325 11 15.5488 11.2239 15.5488 11.5C15.5488 11.7761 15.325 12 15.0488 12H14.0488C13.7727 12 13.5488 11.7761 13.5488 11.5C13.5488 11.2239 13.7727 11 14.0488 11Z" fill="#808A9D"/>
</svg>
