<svg width="24" height="25" viewBox="0 0 24 25" fill="none" xmlns="http://www.w3.org/2000/svg">
<path d="M12 15.79V15.78" stroke="#A2B2D8" stroke-width="1.5" stroke-linecap="round" stroke-linejoin="round"/>
<path d="M9.75 10.53C9.75 10.085 9.88196 9.65001 10.1292 9.28C10.3764 8.90999 10.7278 8.6216 11.139 8.4513C11.5501 8.281 12.0025 8.23645 12.439 8.32326C12.8754 8.41008 13.2763 8.62437 13.591 8.93904C13.9057 9.25371 14.1199 9.65462 14.2068 10.0911C14.2936 10.5275 14.249 10.9799 14.0787 11.3911C13.9084 11.8022 13.62 12.1536 13.25 12.4008C12.88 12.6481 12.445 12.78 12 12.78L12 13.28" stroke="#A2B2D8" stroke-width="1.5" stroke-linecap="round" stroke-linejoin="round"/>
<path d="M4.75 12.03C4.75 16.0341 7.99594 19.28 12 19.28C16.0041 19.28 19.25 16.0341 19.25 12.03C19.25 8.02596 16.0041 4.78003 12 4.78003C7.99594 4.78003 4.75 8.02596 4.75 12.03Z" stroke="#A2B2D8" stroke-width="1.5"/>
</svg>
