<svg width="24" height="24" viewBox="0 0 24 24" fill="none" xmlns="http://www.w3.org/2000/svg">
<g clip-path="url(#clip0_2625_12418)">
<path d="M15.1245 4.00053C15.0078 3.99758 14.8916 4.00692 14.778 4.02805C14.0963 4.15483 13.4973 4.69844 13.266 5.48664C13.2157 5.65792 13.1703 5.82926 13.1327 6.00288C12.5573 5.94283 12.0763 5.93171 11.7782 5.93171C11.4801 5.93171 10.999 5.94283 10.4237 6.00288C10.3861 5.82957 10.3406 5.65857 10.2904 5.48758C10.0591 4.69939 9.46005 4.15578 8.77843 4.029C8.55122 3.98675 8.31448 3.9914 8.07951 4.04798C7.13689 4.27507 5.79066 4.7157 4.72903 5.69731C4.71759 5.70794 4.70648 5.71902 4.69571 5.73052C4.36065 6.08656 4.12956 6.56731 3.84434 7.2451C3.55913 7.92288 3.26331 8.77552 2.99131 9.74756C2.44732 11.6916 2 14.1091 2 16.5052C2.00003 16.6306 2.02843 16.7538 2.08247 16.863C3.08288 18.8852 5.25479 19.652 6.58504 19.9576C7.31883 20.1261 8.07474 19.7829 8.51269 19.0912L9.04 18.258C9.82818 18.446 10.7406 18.5702 11.7782 18.5702C12.8158 18.5702 13.7282 18.446 14.5164 18.258L15.0429 19.0903C15.4807 19.7827 16.2375 20.1252 16.9713 19.9567C18.3016 19.6511 20.4727 18.8843 21.4731 16.8621C21.5271 16.7529 21.5555 16.6296 21.5556 16.5043C21.5556 14.1081 21.1091 11.6906 20.5651 9.74661C20.2931 8.7746 19.9964 7.92194 19.7112 7.24415C19.426 6.56635 19.1947 6.08561 18.8598 5.72957C18.8491 5.71807 18.838 5.70699 18.8265 5.69636C17.765 4.71482 16.4192 4.27414 15.476 4.04703C15.3586 4.01874 15.2413 4.00349 15.1245 4.00053ZM15.092 5.45722C15.1312 5.45859 15.1712 5.46374 15.2111 5.47335C16.0446 5.67404 17.2148 6.10147 17.9968 6.81331C18.0493 6.87377 18.3083 7.28217 18.5575 7.87427C18.8109 8.47657 19.0896 9.27448 19.3455 10.1888C19.8397 11.9548 20.2295 14.1596 20.2568 16.2784C19.5491 17.5045 17.8199 18.2744 16.7181 18.5275C16.4744 18.5835 16.2325 18.4766 16.0817 18.2381L15.8343 17.848C16.0903 17.7491 16.3312 17.6463 16.5457 17.5425C17.618 17.0236 18.2109 16.4578 18.2109 16.4578C18.2749 16.3957 18.3274 16.3198 18.3657 16.2345C18.4039 16.1493 18.427 16.0563 18.4336 15.9608C18.4403 15.8654 18.4304 15.7694 18.4045 15.6783C18.3786 15.5872 18.3371 15.5028 18.2826 15.43C18.2281 15.3571 18.1615 15.2972 18.0866 15.2537C18.0118 15.2102 17.9301 15.1839 17.8463 15.1763C17.7625 15.1688 17.6783 15.1801 17.5983 15.2096C17.5184 15.2391 17.4443 15.2863 17.3804 15.3484C17.3804 15.3484 16.9762 15.7514 16.0458 16.2016C15.1154 16.6518 13.6999 17.1126 11.7782 17.1126C9.85649 17.1126 8.44094 16.6518 7.51054 16.2016C6.58015 15.7514 6.17602 15.3484 6.17602 15.3484C6.0627 15.235 5.91783 15.1708 5.767 15.1672C5.63411 15.1639 5.50363 15.2078 5.39366 15.2928C5.28369 15.3779 5.1997 15.4998 5.15336 15.6417C5.10701 15.7836 5.1006 15.9385 5.13503 16.0847C5.16946 16.2309 5.24302 16.3613 5.34548 16.4578C5.34548 16.4578 5.93841 17.0236 7.01072 17.5425C7.22521 17.6463 7.46606 17.7491 7.72213 17.848L7.47472 18.239C7.32323 18.4783 7.08123 18.5854 6.83745 18.5294C5.73562 18.2763 4.00641 17.5054 3.29871 16.2794C3.32608 14.1605 3.71587 11.9558 4.21005 10.1898C4.46592 9.2754 4.7455 8.47748 4.99893 7.87522C5.24808 7.28316 5.50647 6.87449 5.55874 6.81426C6.34064 6.10248 7.51133 5.675 8.34441 5.4743C8.66361 5.39744 8.97129 5.59065 9.07665 5.94974C9.10404 6.04304 9.12389 6.12941 9.14496 6.2164C8.19152 6.43192 7.12786 6.8062 6.1202 7.48803C6.04495 7.5351 5.97877 7.59893 5.92562 7.67573C5.87247 7.75254 5.83344 7.84074 5.81083 7.93509C5.78823 8.02944 5.78253 8.12801 5.79407 8.22492C5.8056 8.32183 5.83414 8.41511 5.87798 8.4992C5.92182 8.58328 5.98007 8.65646 6.04925 8.71437C6.11843 8.77227 6.19714 8.81373 6.28068 8.83626C6.36422 8.85879 6.45089 8.86195 6.53552 8.84553C6.62015 8.82911 6.70102 8.79345 6.7733 8.74069C8.63171 7.4832 10.9284 7.38934 11.7782 7.38934C12.628 7.38934 14.9247 7.4832 16.7831 8.74069C16.8554 8.79345 16.9362 8.82911 17.0209 8.84553C17.1055 8.86195 17.1922 8.85879 17.2757 8.83626C17.3592 8.81373 17.438 8.77227 17.5071 8.71437C17.5763 8.65646 17.6346 8.58328 17.6784 8.4992C17.7222 8.41511 17.7508 8.32183 17.7623 8.22492C17.7739 8.12801 17.7682 8.02944 17.7456 7.93509C17.723 7.84074 17.6839 7.75254 17.6308 7.67573C17.5776 7.59893 17.5114 7.5351 17.4362 7.48803C16.4282 6.80602 15.3642 6.43189 14.4106 6.2164C14.4317 6.12917 14.4514 6.0424 14.4789 5.94879C14.5711 5.63458 14.8178 5.44762 15.092 5.45722ZM9.02084 11.2726C8.63002 11.2748 8.25581 11.4785 7.98007 11.8391C7.70433 12.1997 7.54952 12.6878 7.54952 13.1966C7.54952 13.7054 7.70433 14.1935 7.98007 14.5541C8.25581 14.9147 8.63002 15.1184 9.02084 15.1207C9.41166 15.1184 9.78587 14.9147 10.0616 14.5541C10.3374 14.1935 10.4922 13.7054 10.4922 13.1966C10.4922 12.6878 10.3374 12.1997 10.0616 11.8391C9.78587 11.4785 9.41166 11.2748 9.02084 11.2726ZM14.5272 11.2726C14.1313 11.2726 13.7516 11.4773 13.4716 11.8418C13.1917 12.2063 13.0344 12.7006 13.0344 13.2161C13.0344 13.7315 13.1917 14.2259 13.4716 14.5903C13.7516 14.9548 14.1313 15.1596 14.5272 15.1596C14.9231 15.1596 15.3028 14.9548 15.5828 14.5903C15.8627 14.2259 16.02 13.7315 16.02 13.2161C16.02 12.7006 15.8627 12.2063 15.5828 11.8418C15.3028 11.4773 14.9231 11.2726 14.5272 11.2726Z" fill="#1D1D1D"/>
</g>
<defs>
<clipPath id="clip0_2625_12418">
<rect width="24" height="24" fill="white"/>
</clipPath>
</defs>
</svg>
