<svg width="24" height="20" viewBox="0 0 24 20" fill="none" xmlns="http://www.w3.org/2000/svg">
<g clip-path="url(#clip0_42_2179)">
<path d="M22.1842 17.549L24 19.2293V19.285H14.7895V19.2293L16.6381 17.549C16.8353 17.3935 16.9297 17.1465 16.8846 16.904V6.16178C16.8846 5.70788 16.8846 5.09472 16.9668 4.56915L10.7552 19.5H10.6813L4.24786 5.76362C4.10818 5.42121 4.0671 5.39732 3.97672 5.16639V14.1727C3.8997 14.7755 4.00533 15.3869 4.28073 15.9325L6.86888 19.2293V19.285H0V19.2293L2.58815 15.9246C2.86152 15.3812 2.96709 14.7728 2.89216 14.1727V4.21878C2.93424 3.72867 2.78139 3.24151 2.46491 2.85708L0.63266 0.555742V0.5H7.20575L12.7107 12.1341L17.5584 0.5H23.9918V0.555742L22.1842 2.50671C21.9676 2.66018 21.8594 2.91932 21.9048 3.17561V16.904C21.8569 17.1538 21.9667 17.4072 22.1842 17.549Z" fill="#565656"/>
</g>
<defs>
<clipPath id="clip0_42_2179">
<rect width="24" height="19" fill="white" transform="translate(0 0.5)"/>
</clipPath>
</defs>
</svg>
