<svg width="24" height="21" viewBox="0 0 24 21" fill="none" xmlns="http://www.w3.org/2000/svg">
<g clip-path="url(#clip0_42_2185)">
<path d="M24 2.86769C23.1172 3.26909 22.1676 3.54057 21.1718 3.66182C22.1886 3.03714 22.9689 2.04871 23.3372 0.86901C22.3858 1.44775 21.3315 1.8676 20.2104 2.0939C19.3122 1.11301 18.0325 0.5 16.6154 0.5C13.8966 0.5 11.6915 2.76113 11.6915 5.54904C11.6915 5.94479 11.7352 6.32999 11.8197 6.69976C7.72753 6.48927 4.09915 4.47929 1.67043 1.42366C1.24667 2.16921 1.00358 3.03714 1.00358 3.9623C1.00358 5.71359 1.8735 7.25967 3.19398 8.16488C2.38722 8.1389 1.62747 7.91184 0.963922 7.53267C0.963555 7.55413 0.963554 7.57559 0.963554 7.59668C0.963554 10.0431 2.66153 12.0835 4.91361 12.5471C4.50087 12.663 4.065 12.7244 3.61663 12.7244C3.29863 12.7244 2.99054 12.6932 2.69017 12.6344C3.31663 14.6399 5.13467 16.0997 7.28982 16.1408C5.60433 17.4952 3.4815 18.3021 1.17396 18.3021C0.777379 18.3021 0.384467 18.2784 0 18.2313C2.17791 19.6645 4.76673 20.5 7.54723 20.5C16.6041 20.5 21.557 12.8065 21.557 6.13381C21.557 5.91504 21.5522 5.69703 21.5426 5.48089C22.5055 4.76923 23.3401 3.88021 24 2.86769Z" fill="#565656"/>
</g>
<defs>
<clipPath id="clip0_42_2185">
<rect width="24" height="20" fill="white" transform="translate(0 0.5)"/>
</clipPath>
</defs>
</svg>
