<svg width="21" height="21" viewBox="0 0 21 21" fill="none" xmlns="http://www.w3.org/2000/svg">
<g clip-path="url(#clip0_42_2183)">
<path fill-rule="evenodd" clip-rule="evenodd" d="M0.704086 1.16072C1.17362 0.720382 1.78653 0.5 2.54295 0.5C3.29943 0.5 3.90578 0.720191 4.36133 1.16072C4.81693 1.60115 5.04951 2.15723 5.05861 2.82935C5.06766 3.49231 4.83757 4.04624 4.36822 4.49111C3.89888 4.93621 3.28128 5.1586 2.51556 5.1586H2.48822C1.74084 5.1586 1.13919 4.93602 0.68359 4.49111C0.227847 4.04624 0 3.49211 0 2.82935C0 2.15718 0.234599 1.60115 0.704086 1.16072ZM19.578 8.23273C18.6303 7.20196 17.3768 6.68648 15.8183 6.68648C15.2441 6.68648 14.7221 6.75685 14.2526 6.8977C13.7833 7.03845 13.3869 7.23593 13.0632 7.49024C12.7397 7.74454 12.4821 7.98062 12.2908 8.19847C12.109 8.4054 11.9311 8.64644 11.7576 8.91911V6.99957H7.25929L7.27308 7.65351C7.28232 8.08955 7.28687 9.4335 7.28687 11.6856C7.28687 13.9378 7.27777 16.8755 7.25948 20.499H11.7576V12.9659C11.7576 12.5029 11.8074 12.1351 11.9079 11.8625C12.0994 11.3991 12.3885 11.0111 12.7761 10.698C13.1637 10.3844 13.6443 10.2278 14.2187 10.2278C15.0024 10.2278 15.5791 10.4979 15.9483 11.0382C16.3173 11.5785 16.5019 12.3255 16.5019 13.2791V20.4986H21V12.7618C20.9997 10.7728 20.5261 9.26317 19.578 8.23273ZM4.77026 7.00075H0.258516V20.5H4.77026V7.00075Z" fill="#565656"/>
</g>
<defs>
<clipPath id="clip0_42_2183">
<rect width="21" height="20" fill="white" transform="translate(0 0.5)"/>
</clipPath>
</defs>
</svg>
