<svg width="20" height="21" viewBox="0 0 20 21" fill="none" xmlns="http://www.w3.org/2000/svg">
<g clip-path="url(#clip0_42_2181)">
<path d="M18.6584 5.48042C17.7642 3.94828 16.5513 2.73528 15.0192 1.84115C13.487 0.946974 11.8142 0.5 9.99983 0.5C8.18563 0.5 6.51234 0.947111 4.98042 1.84115C3.44828 2.73523 2.23537 3.94828 1.34115 5.48042C0.447065 7.01253 0 8.68558 0 10.4996C0 12.6786 0.635732 14.638 1.90752 16.3783C3.17917 18.1187 4.82195 19.3231 6.83573 19.9915C7.07013 20.035 7.24366 20.0043 7.35648 19.9004C7.46936 19.7963 7.52573 19.666 7.52573 19.51C7.52573 19.4839 7.52349 19.2497 7.51916 18.8068C7.51469 18.3641 7.51259 17.9778 7.51259 17.6482L7.21311 17.7C7.02216 17.735 6.78127 17.7498 6.49045 17.7457C6.19977 17.7416 5.89799 17.7111 5.58556 17.6545C5.27298 17.5983 4.98225 17.4682 4.71313 17.2642C4.44416 17.0602 4.25321 16.7932 4.14033 16.4635L4.01013 16.1639C3.92335 15.9644 3.78672 15.7428 3.60005 15.4999C3.41339 15.2568 3.22463 15.092 3.03368 15.0052L2.94252 14.9399C2.88177 14.8966 2.82541 14.8443 2.77328 14.7836C2.7212 14.7228 2.68221 14.6621 2.65617 14.6012C2.63008 14.5404 2.6517 14.4904 2.72125 14.4513C2.79079 14.4121 2.91648 14.3931 3.09886 14.3931L3.35917 14.432C3.53278 14.4667 3.74754 14.5707 4.0037 14.7444C4.25973 14.918 4.47019 15.1437 4.63515 15.4213C4.8349 15.7772 5.07556 16.0486 5.35781 16.2352C5.63982 16.4218 5.92417 16.515 6.21058 16.515C6.49697 16.515 6.74433 16.4933 6.95274 16.4502C7.16093 16.4067 7.35626 16.3415 7.53863 16.2548C7.61675 15.6729 7.82946 15.2259 8.17656 14.9135C7.68183 14.8615 7.23705 14.7832 6.84197 14.6791C6.44712 14.5748 6.0391 14.4057 5.61817 14.171C5.197 13.9367 4.84762 13.6458 4.56993 13.2988C4.2922 12.9516 4.06427 12.4957 3.88645 11.9316C3.70855 11.3672 3.61958 10.7163 3.61958 9.9785C3.61958 8.928 3.96252 8.03408 4.64828 7.29618C4.32704 6.5064 4.35737 5.62103 4.73936 4.64015C4.99109 4.56194 5.36442 4.62063 5.85914 4.81587C6.35395 5.01119 6.71624 5.17852 6.94636 5.31725C7.17648 5.45593 7.36087 5.57346 7.49977 5.66877C8.30722 5.44317 9.1405 5.33034 9.99975 5.33034C10.859 5.33034 11.6925 5.44317 12.4999 5.66877L12.9948 5.35642C13.3331 5.14801 13.7326 4.95702 14.1924 4.7834C14.6524 4.60987 15.0042 4.56207 15.2474 4.64029C15.6379 5.62121 15.6727 6.50653 15.3513 7.29632C16.0371 8.03421 16.3802 8.92842 16.3802 9.97867C16.3802 10.7165 16.2908 11.3695 16.1132 11.9382C15.9353 12.5068 15.7055 12.9622 15.4234 13.3053C15.1411 13.6483 14.7895 13.9369 14.3686 14.1712C13.9475 14.4056 13.5394 14.5747 13.1445 14.679C12.7495 14.7832 12.3047 14.8617 11.81 14.9137C12.2612 15.3042 12.4868 15.9205 12.4868 16.7625V19.5096C12.4868 19.6657 12.5412 19.7959 12.6497 19.9001C12.7582 20.004 12.9296 20.0346 13.164 19.9911C15.1781 19.3228 16.8208 18.1184 18.0924 16.3779C19.3639 14.6376 19.9998 12.6782 19.9998 10.4992C19.9994 8.68545 19.5521 7.01253 18.6584 5.48042Z" fill="#565656"/>
</g>
<defs>
<clipPath id="clip0_42_2181">
<rect width="20" height="20" fill="white" transform="translate(0 0.5)"/>
</clipPath>
</defs>
</svg>
