<svg width="198" height="21" viewBox="0 0 198 21" fill="none" xmlns="http://www.w3.org/2000/svg">
<path d="M64.5189 15.9204H66.8011L61.8246 5.81885H59.5424L54.5664 15.9204H56.8328C58.1548 13.2756 59.4085 10.606 60.684 7.94198C61.9578 10.6034 63.2162 13.2706 64.5189 15.9204Z" fill="#565656"/>
<path d="M84.5745 15.9204H86.6665V5.84766H84.2733L80.8027 10.178L77.3319 5.84766H74.9229V15.9204H77.0148V8.59753L80.5492 12.9857H80.961L84.5745 8.61193V15.9204Z" fill="#565656"/>
<path d="M101.16 5.81885C99.4009 5.81885 97.6416 5.81885 95.8984 5.81885V15.9204C97.6574 15.9204 99.4009 15.9204 101.16 15.9204C103.458 15.9204 105.312 15.2002 105.312 12.9519C105.312 12.318 104.837 11.0643 103.537 10.704C104.567 10.2861 104.979 9.53433 104.979 8.75129C104.979 6.71225 103.347 5.81885 101.16 5.81885ZM97.9585 7.54807H101.16C102.491 7.54807 102.903 8.33087 102.903 8.79448C102.903 9.37576 102.475 9.88255 101.16 9.88255H97.9585V7.54807ZM97.9585 11.554H101.16C102.016 11.554 103.236 12.0294 103.236 12.9375C103.236 13.8887 102.016 14.148 101.16 14.148H97.9585V11.554Z" fill="#565656"/>
<path d="M119.409 7.59102C120.725 7.59102 121.311 8.40033 121.311 9.21239C121.311 10.0242 120.74 10.8335 119.409 10.8335H116.224V7.59125H119.409V7.59102ZM123.958 15.7906L120.598 12.3466C122.706 11.9577 123.403 10.5598 123.403 9.1692C123.403 7.41828 122.024 5.83301 119.409 5.81885C117.65 5.83324 115.891 5.81885 114.132 5.81885V15.9204H116.224V12.5486H118.237L121.47 15.9204H123.958V15.7906Z" fill="#565656"/>
<path d="M137.357 7.36036C139.972 7.36036 141.018 9.2626 140.986 10.9633C140.954 12.6204 139.972 14.4072 137.357 14.4072C134.742 14.4072 133.759 12.6348 133.712 10.9775C133.664 9.27676 134.742 7.36036 137.357 7.36036ZM137.357 5.63086C133.521 5.63086 131.651 8.29697 131.651 10.9485C131.651 13.5999 133.458 16.1509 137.357 16.1509C141.256 16.1509 143.015 13.5426 143.046 10.9341C143.078 8.29697 141.176 5.63086 137.357 5.63086Z" fill="#565656"/>
<path d="M160.74 7.49024C159.9 5.934 158.109 5.4873 156.382 5.4873C154.338 5.5017 152.087 6.35168 152.087 8.42682C152.087 10.6891 154.179 11.237 156.445 11.4817C157.919 11.6259 159.013 12.015 159.013 12.966C159.013 14.0611 157.777 14.479 156.461 14.479C155.114 14.479 153.83 13.9889 153.339 12.8796L151.596 13.701C152.42 15.5456 154.163 16.1797 156.429 16.1797C158.902 16.1797 161.089 15.2141 161.089 12.9662C161.089 10.5598 158.933 10.0121 156.619 9.75274C155.288 9.60879 154.147 9.36385 154.147 8.48485C154.147 7.73541 154.892 7.14454 156.445 7.14454C157.65 7.14454 158.696 7.692 159.076 8.2687L160.74 7.49024Z" fill="#565656"/>
<path d="M177.69 5.84766V11.6263C177.69 13.3555 176.707 14.4075 174.98 14.4075C173.252 14.4075 172.111 13.4421 172.111 11.6263V5.84766H170.035V11.6263C170.035 14.667 172.302 16.1367 174.964 16.1367C177.753 16.1367 179.766 14.6092 179.766 11.6263V5.84766H177.69Z" fill="#565656"/>
<path d="M197.651 7.49024C196.811 5.934 195.02 5.4873 193.293 5.4873C191.248 5.5017 188.998 6.35168 188.998 8.42682C188.998 10.6891 191.09 11.237 193.356 11.4817C194.83 11.6259 195.924 12.015 195.924 12.966C195.924 14.0611 194.688 14.479 193.372 14.479C192.025 14.479 190.741 13.9889 190.25 12.8796L188.507 13.701C189.331 15.5456 191.074 16.1797 193.34 16.1797C195.813 16.1797 198 15.2141 198 12.9662C198 10.5598 195.844 10.0121 193.531 9.75274C192.199 9.60879 191.058 9.36385 191.058 8.48485C191.058 7.73541 191.803 7.14454 193.356 7.14454C194.561 7.14454 195.607 7.692 195.987 8.2687L197.651 7.49024Z" fill="#565656"/>
<path fill-rule="evenodd" clip-rule="evenodd" d="M21.0367 20.9087C16.106 20.8476 11.6856 17.8782 10.2424 13.4994C9.84585 13.3541 9.53539 13.0355 9.44569 12.6256C9.30437 11.9797 9.76592 11.352 10.4764 11.2234C11.1867 11.0949 11.8773 11.5146 12.0184 12.1605C12.0988 12.5289 11.9837 12.8909 11.7379 13.1583C13.0061 16.9069 16.8019 19.4464 21.0367 19.5076C21.6196 19.4982 22.2099 19.4416 22.8018 19.3346C26.9834 18.5785 30.0224 15.5317 30.6552 11.9147C30.6684 11.8388 30.6805 11.7625 30.6919 11.6861C30.8362 10.688 32.3517 10.8722 32.2389 11.7355C31.668 16.0885 28.0874 19.8071 23.1024 20.7086C22.4093 20.8338 21.719 20.8989 21.0367 20.9087ZM31.7216 16.958C33.1305 16.2806 34.5072 15.4654 35.8384 14.51C37.2596 13.4901 38.4098 12.5342 39.6132 11.3036C40.3591 10.5407 40.3591 10.3427 39.6132 9.57964C38.4099 8.34907 37.2596 7.39312 35.8384 6.37322C34.466 5.38838 33.0452 4.55236 31.5907 3.86274C30.8723 2.90123 30.0017 2.04143 29.0112 1.31089C31.7095 2.18092 34.3313 3.4995 36.7969 5.26891C38.2034 6.27828 39.4269 7.32331 40.5737 8.46885C42.5739 10.4662 42.5739 10.4169 40.5737 12.4141C39.4267 13.5596 38.2034 14.6045 36.7969 15.614C34.4145 17.3235 31.8865 18.6123 29.2844 19.4824C30.2221 18.7515 31.0438 17.9015 31.7216 16.958ZM10.3521 16.958C8.94343 16.2806 7.56654 15.4654 6.23533 14.51C4.81409 13.4901 3.66393 12.5342 2.46048 11.3036C1.71461 10.5407 1.71461 10.3427 2.46048 9.57964C3.66377 8.34907 4.81393 7.39312 6.23533 6.37322C7.60775 5.38838 9.02849 4.55236 10.483 3.86274C11.2014 2.90123 12.072 2.04143 13.0625 1.31089C10.3642 2.18092 7.74246 3.4995 5.27697 5.26891C3.8703 6.27828 2.64699 7.32331 1.49997 8.46885C-0.49999 10.4662 -0.49999 10.4169 1.49997 12.4141C2.64715 13.5596 3.8703 14.6045 5.27697 15.614C7.65922 17.3235 10.1873 18.6123 12.7893 19.4824C11.8514 18.7515 11.0298 17.9015 10.3521 16.958ZM21.0367 15.2822C18.4552 15.2822 18.5628 15.4551 18.7902 14.3878L19.608 10.5473C18.788 10.0867 18.2415 9.26199 18.2415 8.32124C18.2415 6.90153 19.4859 5.74621 21.0369 5.70738C22.588 5.74621 23.8322 6.90153 23.8322 8.32124C23.8322 9.26199 23.2857 10.0867 22.4657 10.5473L23.2834 14.3878C23.5108 15.4551 23.6182 15.2822 21.0367 15.2822ZM21.0367 3.24927C25.4409 3.24927 29.0112 6.49541 29.0112 10.4999C29.0112 14.5044 25.4411 17.7507 21.0367 17.7507C16.6325 17.7507 13.0622 14.5044 13.0622 10.4999C13.0622 6.49541 16.6326 3.24927 21.0367 3.24927ZM21.0367 0.0913086C25.9675 0.1524 30.3878 3.12167 31.8312 7.50041C32.2277 7.64577 32.5382 7.96432 32.6277 8.3742C32.769 9.02018 32.3075 9.64795 31.597 9.7763C30.8866 9.90481 30.1961 9.48529 30.055 8.83931C29.9745 8.47111 30.0899 8.10892 30.3353 7.84153C29.0673 4.09297 25.2713 1.55345 21.0367 1.49221C20.4538 1.50168 19.8637 1.55826 19.2716 1.6654C15.0899 2.42137 12.0512 5.46828 11.4182 9.08533C11.4048 9.16117 11.3927 9.23746 11.3814 9.3139C11.237 10.312 9.72157 10.1278 9.83427 9.26455C10.4054 4.91154 13.9858 1.19292 18.9709 0.291587C19.6641 0.166244 20.3547 0.101089 21.0367 0.0913086Z" fill="#565656"/>
</svg>
