<svg width="223" height="33" viewBox="0 0 223 33" fill="none" xmlns="http://www.w3.org/2000/svg">
<path d="M55.0574 24.6954C55.0759 24.7326 55.0855 24.7735 55.0855 24.8151C55.0855 24.9634 54.9652 25.0837 54.8169 25.0837H53.5657C53.17 25.0837 52.8088 24.8581 52.6351 24.5025L50.7586 20.661C50.5849 20.3054 50.2237 20.0798 49.8279 20.0798L40.2888 20.0798C39.8931 20.0798 39.5319 20.3054 39.3582 20.661L37.4817 24.5025C37.3079 24.8581 36.9468 25.0837 36.551 25.0837H35.2999C35.1515 25.0837 35.0312 24.9634 35.0312 24.8151C35.0312 24.7735 35.0409 24.7326 35.0594 24.6954L43.606 7.52243C43.7811 7.17058 44.1402 6.94815 44.5332 6.94815H45.5835C45.9765 6.94815 46.3357 7.17058 46.5108 7.52242L55.0574 24.6954ZM47.863 18.1246C48.6309 18.1246 49.1318 17.3183 48.7915 16.6299L45.9869 10.9555C45.6068 10.1864 44.51 10.1864 44.1298 10.9555L41.3252 16.6299C40.985 17.3183 41.4859 18.1246 42.2537 18.1246H47.863Z" fill="#3568DD"/>
<path d="M59.3697 6.94815C59.9417 6.94815 60.4055 7.41187 60.4055 7.98391V24.0479C60.4055 24.62 59.9417 25.0837 59.3697 25.0837H59.3025C58.7304 25.0837 58.2667 24.62 58.2667 24.0479V7.98391C58.2667 7.41187 58.7304 6.94815 59.3025 6.94815H59.3697Z" fill="#3568DD"/>
<path d="M83.177 12.5326C83.177 14.0623 82.6029 15.2879 81.4549 16.2094C80.3068 17.1125 79.2543 17.5641 75.3379 17.5641C75.2845 17.5641 75.2563 17.6274 75.2922 17.6671L81.6367 24.6835C81.6766 24.7276 81.6986 24.7848 81.6986 24.8442C81.6986 24.9764 81.5914 25.0837 81.4591 25.0837H79.7127C79.4207 25.0837 79.1424 24.9605 78.9461 24.7445L72.7297 17.9033C72.5334 17.6872 72.255 17.5641 71.9631 17.5641H68.8248C68.2528 17.5641 67.7891 18.0278 67.7891 18.5998V24.0479C67.7891 24.62 67.3254 25.0837 66.7533 25.0837H66.7139C66.1418 25.0837 65.6781 24.62 65.6781 24.0479V7.98391C65.6781 7.41187 66.1418 6.94815 66.7139 6.94815L76.7607 6.94815C78.7606 6.94815 80.3253 7.41812 81.4549 8.35807C82.6029 9.27959 83.177 10.5513 83.177 12.1732V12.5326ZM76.7052 15.6842C78.0569 15.6842 79.1124 15.3985 79.8716 14.8272C80.6494 14.2558 81.0382 13.4633 81.0382 12.4496V12.0902C81.0382 11.0766 80.6586 10.2841 79.8994 9.71271C79.1402 9.14137 78.0754 8.85569 76.7052 8.85569H68.8248C68.2528 8.85569 67.7891 9.31942 67.7891 9.89146V14.6484C67.7891 15.2204 68.2528 15.6842 68.8248 15.6842L76.7052 15.6842Z" fill="#3568DD"/>
<path d="M95.7779 6.94815C98.9999 6.94815 101.463 7.70379 103.166 9.21509C104.87 10.7264 105.722 12.9196 105.722 15.7947V16.2647C105.722 19.1399 104.87 21.3331 103.166 22.8444C101.481 24.3373 99.0185 25.0837 95.7779 25.0837H88.5364C87.9644 25.0837 87.5007 24.62 87.5007 24.0479V7.98391C87.5007 7.41187 87.9644 6.94815 88.5364 6.94815L95.7779 6.94815ZM95.7779 23.1761C98.3518 23.1761 100.287 22.6048 101.583 21.4621C102.898 20.301 103.555 18.5777 103.555 16.2924V15.7671C103.555 13.5002 102.898 11.7861 101.583 10.625C100.268 9.44547 98.324 8.85569 95.7501 8.85569H90.6474C90.0754 8.85569 89.6117 9.31942 89.6117 9.89146V22.1404C89.6117 22.7124 90.0754 23.1761 90.6474 23.1761H95.7779Z" fill="#3568DD"/>
<path d="M126.751 24.6954C126.769 24.7326 126.779 24.7735 126.779 24.8151C126.779 24.9634 126.659 25.0837 126.51 25.0837H125.259C124.863 25.0837 124.502 24.8581 124.329 24.5025L122.452 20.661C122.278 20.3054 121.917 20.0798 121.521 20.0798H111.982C111.587 20.0798 111.225 20.3054 111.052 20.661L109.175 24.5025C109.001 24.8581 108.64 25.0837 108.244 25.0837H106.993C106.845 25.0837 106.725 24.9634 106.725 24.8151C106.725 24.7735 106.734 24.7326 106.753 24.6954L115.299 7.52243C115.475 7.17058 115.834 6.94815 116.227 6.94815H117.277C117.67 6.94815 118.029 7.17058 118.204 7.52242L126.751 24.6954ZM119.556 18.1246C120.324 18.1246 120.825 17.3183 120.485 16.6299L117.68 10.9555C117.3 10.1864 116.203 10.1864 115.823 10.9555L113.019 16.6299C112.678 17.3183 113.179 18.1246 113.947 18.1246H119.556Z" fill="#3568DD"/>
<path d="M137.986 25.3878C135.912 25.3878 134.106 25.0192 132.569 24.282C131.032 23.5263 129.847 22.4573 129.014 21.0751C128.181 19.6928 127.764 18.0801 127.764 16.2371V15.8224C127.764 13.9609 128.181 12.339 129.014 10.9568C129.847 9.57448 131.032 8.51473 132.569 7.77751C134.106 7.02187 135.912 6.64404 137.986 6.64404C140.041 6.64404 141.837 7.02187 143.374 7.77751C144.911 8.53316 146.096 9.60213 146.93 10.9844C147.763 12.3667 148.179 13.9794 148.179 15.8224V16.2371C148.179 18.0801 147.763 19.6928 146.93 21.0751C146.096 22.4573 144.911 23.5263 143.374 24.282C141.837 25.0192 140.041 25.3878 137.986 25.3878ZM137.986 23.4249C140.504 23.4249 142.467 22.7891 143.874 21.5174C145.3 20.2457 146.013 18.4948 146.013 16.2647V15.7947C146.013 13.5647 145.3 11.8138 143.874 10.5421C142.448 9.25195 140.485 8.60688 137.986 8.60688C135.467 8.60688 133.486 9.25195 132.042 10.5421C130.616 11.8138 129.903 13.5647 129.903 15.7947V16.2647C129.903 18.4948 130.616 20.2457 132.042 21.5174C133.486 22.7891 135.467 23.4249 137.986 23.4249Z" fill="#3568DD"/>
<path fill-rule="evenodd" clip-rule="evenodd" d="M1.70015 31.9694C1.51145 32.0844 1.26567 32.0311 1.14162 31.8482L0.571481 31.0075C0.44743 30.8246 0.489109 30.5769 0.663411 30.441C2.4048 29.0835 3.83495 27.5518 4.95818 25.9105C9.11481 19.8366 9.11481 12.1933 4.95818 6.1195C3.83495 4.47819 2.4048 2.94643 0.663412 1.58899C0.48911 1.45312 0.447431 1.20533 0.571482 1.02243L1.14162 0.181796C1.26567 -0.00110744 1.51145 -0.054442 1.70015 0.0605914L25.0245 14.279C26.3243 15.0714 26.3243 16.9586 25.0245 17.751L1.70015 31.9694ZM0.892821 31.4033L0.896851 31.4008C2.85535 29.9284 4.45795 28.2425 5.70465 26.4208C10.0718 20.0393 10.0718 11.9906 5.70465 5.60917C4.45797 3.78747 2.8554 2.10163 0.896941 0.629223L0.892822 0.626712C2.15943 1.57861 3.27724 2.61977 4.24625 3.72921C4.77672 4.33655 5.2626 4.96435 5.70388 5.60917C10.071 11.9906 10.0711 20.0393 5.70388 26.4208C5.2626 27.0656 4.77672 27.6934 4.24625 28.3008C3.27724 29.4102 2.15943 30.4514 0.892821 31.4033Z" fill="url(#paint0_linear_1848_11285)"/>
<path d="M157.71 16.0149C157.637 16.0149 157.578 15.9929 157.534 15.9489C157.49 15.8976 157.468 15.8352 157.468 15.7619V8.57889C157.468 8.49823 157.49 8.43589 157.534 8.39189C157.578 8.34056 157.637 8.31489 157.71 8.31489H162.231C162.312 8.31489 162.374 8.34056 162.418 8.39189C162.469 8.43589 162.495 8.49823 162.495 8.57889V8.97489C162.495 9.04823 162.469 9.10689 162.418 9.15089C162.374 9.19489 162.312 9.21689 162.231 9.21689H158.48V11.6699H161.989C162.07 11.6699 162.132 11.6956 162.176 11.7469C162.227 11.7909 162.253 11.8532 162.253 11.9339V12.3079C162.253 12.3812 162.227 12.4436 162.176 12.4949C162.132 12.5389 162.07 12.5609 161.989 12.5609H158.48V15.1019H162.319C162.4 15.1019 162.462 15.1276 162.506 15.1789C162.557 15.2229 162.583 15.2852 162.583 15.3659V15.7619C162.583 15.8352 162.557 15.8976 162.506 15.9489C162.455 15.9929 162.392 16.0149 162.319 16.0149H157.71ZM163.655 16.0149C163.596 16.0149 163.545 15.9929 163.501 15.9489C163.457 15.9049 163.435 15.8536 163.435 15.7949C163.435 15.7436 163.45 15.6959 163.479 15.6519L165.998 12.0989L163.6 8.67789C163.571 8.63389 163.556 8.58623 163.556 8.53489C163.556 8.47623 163.578 8.42489 163.622 8.38089C163.666 8.33689 163.717 8.31489 163.776 8.31489H164.403C164.506 8.31489 164.601 8.37723 164.689 8.50189L166.658 11.2849L168.605 8.50189C168.678 8.37723 168.774 8.31489 168.891 8.31489H169.474C169.533 8.31489 169.584 8.33689 169.628 8.38089C169.672 8.42489 169.694 8.47623 169.694 8.53489C169.694 8.58623 169.679 8.63389 169.65 8.67789L167.274 12.1099L169.793 15.6519C169.822 15.6959 169.837 15.7436 169.837 15.7949C169.837 15.8536 169.811 15.9049 169.76 15.9489C169.716 15.9929 169.665 16.0149 169.606 16.0149H168.979C168.869 16.0149 168.774 15.9562 168.693 15.8389L166.614 12.9349L164.546 15.8389C164.465 15.9562 164.37 16.0149 164.26 16.0149H163.655ZM171.31 16.0149C171.236 16.0149 171.178 15.9929 171.134 15.9489C171.09 15.8976 171.068 15.8352 171.068 15.7619V8.57889C171.068 8.49823 171.09 8.43589 171.134 8.39189C171.178 8.34056 171.236 8.31489 171.31 8.31489H174.093C174.921 8.31489 175.57 8.51656 176.04 8.91989C176.516 9.31589 176.755 9.89523 176.755 10.6579C176.755 11.4206 176.516 11.9999 176.04 12.3959C175.57 12.7919 174.921 12.9899 174.093 12.9899H172.113V15.7619C172.113 15.8352 172.087 15.8976 172.036 15.9489C171.992 15.9929 171.933 16.0149 171.86 16.0149H171.31ZM174.038 12.0989C175.145 12.0989 175.699 11.6186 175.699 10.6579C175.699 10.1886 175.559 9.82923 175.281 9.57989C175.009 9.33056 174.595 9.20589 174.038 9.20589H172.113V12.0989H174.038ZM178.356 16.0149C178.283 16.0149 178.224 15.9929 178.18 15.9489C178.136 15.8976 178.114 15.8352 178.114 15.7619V8.56789C178.114 8.49456 178.136 8.43589 178.18 8.39189C178.224 8.34056 178.283 8.31489 178.356 8.31489H178.906C178.98 8.31489 179.038 8.34056 179.082 8.39189C179.126 8.43589 179.148 8.49456 179.148 8.56789V15.0909H182.822C182.903 15.0909 182.965 15.1166 183.009 15.1679C183.061 15.2119 183.086 15.2706 183.086 15.3439V15.7619C183.086 15.8352 183.061 15.8976 183.009 15.9489C182.958 15.9929 182.896 16.0149 182.822 16.0149H178.356ZM186.923 16.1249C185.97 16.1249 185.233 15.8756 184.712 15.3769C184.191 14.8709 183.916 14.1119 183.887 13.0999C183.88 12.8799 183.876 12.5682 183.876 12.1649C183.876 11.7616 183.88 11.4536 183.887 11.2409C183.916 10.2436 184.199 9.48823 184.734 8.97489C185.277 8.46156 186.006 8.20489 186.923 8.20489C187.84 8.20489 188.566 8.46156 189.101 8.97489C189.636 9.48823 189.919 10.2436 189.948 11.2409C189.963 11.6662 189.97 11.9742 189.97 12.1649C189.97 12.3482 189.963 12.6599 189.948 13.0999C189.919 14.1119 189.644 14.8709 189.123 15.3769C188.61 15.8756 187.876 16.1249 186.923 16.1249ZM186.923 15.2119C187.51 15.2119 187.979 15.0359 188.331 14.6839C188.683 14.3246 188.874 13.7782 188.903 13.0449C188.918 12.6049 188.925 12.3116 188.925 12.1649C188.925 12.0036 188.918 11.7102 188.903 11.2849C188.874 10.5516 188.683 10.0052 188.331 9.64589C187.979 9.28656 187.51 9.10689 186.923 9.10689C186.336 9.10689 185.863 9.28656 185.504 9.64589C185.152 10.0052 184.965 10.5516 184.943 11.2849C184.936 11.4976 184.932 11.7909 184.932 12.1649C184.932 12.5316 184.936 12.8249 184.943 13.0449C184.965 13.7782 185.152 14.3246 185.504 14.6839C185.856 15.0359 186.329 15.2119 186.923 15.2119ZM191.838 16.0149C191.765 16.0149 191.706 15.9929 191.662 15.9489C191.618 15.8976 191.596 15.8352 191.596 15.7619V8.57889C191.596 8.49823 191.618 8.43589 191.662 8.39189C191.706 8.34056 191.765 8.31489 191.838 8.31489H194.522C195.358 8.31489 196.011 8.51289 196.48 8.90889C196.957 9.29756 197.195 9.86589 197.195 10.6139C197.195 11.1712 197.056 11.6296 196.777 11.9889C196.498 12.3482 196.11 12.5976 195.611 12.7369L197.305 15.6739C197.327 15.7179 197.338 15.7582 197.338 15.7949C197.338 15.8536 197.316 15.9049 197.272 15.9489C197.228 15.9929 197.177 16.0149 197.118 16.0149H196.634C196.524 16.0149 196.436 15.9892 196.37 15.9379C196.311 15.8866 196.256 15.8132 196.205 15.7179L194.588 12.9019H192.63V15.7619C192.63 15.8352 192.604 15.8976 192.553 15.9489C192.502 15.9929 192.439 16.0149 192.366 16.0149H191.838ZM194.478 11.9999C195.585 11.9999 196.139 11.5342 196.139 10.6029C196.139 9.67156 195.585 9.20589 194.478 9.20589H192.63V11.9999H194.478ZM199.035 16.0149C198.962 16.0149 198.903 15.9929 198.859 15.9489C198.815 15.8976 198.793 15.8352 198.793 15.7619V8.57889C198.793 8.49823 198.815 8.43589 198.859 8.39189C198.903 8.34056 198.962 8.31489 199.035 8.31489H203.556C203.637 8.31489 203.699 8.34056 203.743 8.39189C203.795 8.43589 203.82 8.49823 203.82 8.57889V8.97489C203.82 9.04823 203.795 9.10689 203.743 9.15089C203.699 9.19489 203.637 9.21689 203.556 9.21689H199.805V11.6699H203.314C203.395 11.6699 203.457 11.6956 203.501 11.7469C203.553 11.7909 203.578 11.8532 203.578 11.9339V12.3079C203.578 12.3812 203.553 12.4436 203.501 12.4949C203.457 12.5389 203.395 12.5609 203.314 12.5609H199.805V15.1019H203.644C203.725 15.1019 203.787 15.1276 203.831 15.1789C203.883 15.2229 203.908 15.2852 203.908 15.3659V15.7619C203.908 15.8352 203.883 15.8976 203.831 15.9489C203.78 15.9929 203.718 16.0149 203.644 16.0149H199.035ZM205.695 16.0149C205.622 16.0149 205.563 15.9929 205.519 15.9489C205.475 15.8976 205.453 15.8352 205.453 15.7619V8.57889C205.453 8.49823 205.475 8.43589 205.519 8.39189C205.563 8.34056 205.622 8.31489 205.695 8.31489H208.379C209.215 8.31489 209.868 8.51289 210.337 8.90889C210.814 9.29756 211.052 9.86589 211.052 10.6139C211.052 11.1712 210.913 11.6296 210.634 11.9889C210.356 12.3482 209.967 12.5976 209.468 12.7369L211.162 15.6739C211.184 15.7179 211.195 15.7582 211.195 15.7949C211.195 15.8536 211.173 15.9049 211.129 15.9489C211.085 15.9929 211.034 16.0149 210.975 16.0149H210.491C210.381 16.0149 210.293 15.9892 210.227 15.9379C210.169 15.8866 210.114 15.8132 210.062 15.7179L208.445 12.9019H206.487V15.7619C206.487 15.8352 206.462 15.8976 206.41 15.9489C206.359 15.9929 206.297 16.0149 206.223 16.0149H205.695ZM208.335 11.9999C209.443 11.9999 209.996 11.5342 209.996 10.6029C209.996 9.67156 209.443 9.20589 208.335 9.20589H206.487V11.9999H208.335Z" fill="#3568DD"/>
<defs>
<linearGradient id="paint0_linear_1848_11285" x1="28.9756" y1="16.2987" x2="-8.8778" y2="16.2987" gradientUnits="userSpaceOnUse">
<stop stop-color="#3568DD"/>
<stop offset="1" stop-color="#3568DD" stop-opacity="0.6"/>
</linearGradient>
</defs>
</svg>
