<svg width="24" height="24" viewBox="0 0 24 24" fill="none" xmlns="http://www.w3.org/2000/svg">
<g clip-path="url(#clip0_2107_6770)">
<path fill-rule="evenodd" clip-rule="evenodd" d="M2.75 12.0568C2.75 9.48582 4.81808 7.41162 7.35847 7.41162C9.89882 7.41162 11.9671 9.48652 11.9671 12.0568C11.9671 14.6272 9.89896 16.7022 7.35847 16.7022C4.81794 16.7022 2.75 14.6279 2.75 12.0568ZM7.35847 5.91162C3.98014 5.91162 1.25 8.66693 1.25 12.0568C1.25 15.4467 3.97991 18.2022 7.35847 18.2022C9.77864 18.2022 11.866 16.7879 12.8556 14.7398C12.9901 15.1968 13.159 15.6199 13.3584 15.9978C13.8927 17.0107 14.7603 17.8856 15.9163 17.8856C17.0722 17.8856 17.9398 17.011 18.4742 15.9981C18.5487 15.8569 18.619 15.7093 18.6848 15.556C18.7711 15.9432 18.8796 16.2982 19.0172 16.5793C19.0929 16.7339 19.1961 16.9055 19.3405 17.0482C19.4872 17.1932 19.7294 17.3572 20.0576 17.3572C20.3858 17.3572 20.628 17.1933 20.7747 17.0483C20.9191 16.9056 21.0223 16.734 21.098 16.5795C21.2509 16.2673 21.3678 15.8639 21.4584 15.4266C21.6421 14.5396 21.75 13.3487 21.75 12.0568C21.75 10.7651 21.6422 9.57419 21.4586 8.68723C21.368 8.24992 21.2511 7.84653 21.0983 7.53428C21.0226 7.37969 20.9194 7.20812 20.7749 7.0654C20.6281 6.92037 20.386 6.75645 20.0578 6.75645C19.7296 6.75645 19.4875 6.92043 19.3407 7.06544C19.1963 7.20816 19.093 7.37973 19.0173 7.53433C18.8797 7.81554 18.7711 8.17067 18.6847 8.55793C18.6189 8.40466 18.5487 8.25711 18.4742 8.11589C17.9399 7.10302 17.0723 6.22805 15.9163 6.22805C14.7603 6.22805 13.8927 7.10302 13.3584 8.11589C13.159 8.49379 12.9901 8.91695 12.8555 9.37396C11.866 7.32585 9.77849 5.91162 7.35847 5.91162ZM13.987 12.0568C13.987 10.7517 14.2677 9.60694 14.6851 8.81575C15.1205 7.9903 15.5926 7.72805 15.9163 7.72805C16.24 7.72805 16.712 7.9903 17.1475 8.81575C17.5648 9.60694 17.8456 10.7517 17.8456 12.0568C17.8456 13.3624 17.5648 14.5071 17.1475 15.2982C16.7121 16.1234 16.2401 16.3856 15.9163 16.3856C15.5926 16.3856 15.1205 16.1234 14.6851 15.2979C14.2677 14.5067 13.987 13.362 13.987 12.0568Z" fill="#1D1D1D"/>
</g>
<defs>
<clipPath id="clip0_2107_6770">
<rect width="24" height="24" fill="white"/>
</clipPath>
</defs>
</svg>
