<svg width="200" height="197" viewBox="0 0 200 197" fill="none" xmlns="http://www.w3.org/2000/svg">
    <path d="M149.536 164.904C149.536 164.904 119.512 142.12 73.8679 184.722C33.3319 222.555 0.233252 162.862 0.00155438 134.276C-0.298462 97.2462 40.538 67.6164 20.7202 43.2945C0.902323 18.9726 60.0216 -21.191 91.884 13.5679C131.52 56.8067 142.257 21.6752 164.849 21.6752C181.064 21.6752 214.354 61.9642 191.874 91.9382C172.957 117.161 183.274 125.532 188.27 134.276C195.477 146.887 178.361 181.118 149.536 164.904Z"
          fill="#ECECEC"/>
    <path d="M15.3204 142.347C15.9492 141.987 23.0455 138.982 58.3484 155.441C58.2455 155.581 58.2019 155.647 58.2019 155.647C58.2019 155.647 21.501 168.007 14.3102 152.78C12.1629 148.247 12.7782 145.126 15.2591 142.382L15.3204 142.347Z"
          fill="#D1D1D1"/>
    <path d="M133.976 148.575C126.306 155.023 114.278 159.703 102.672 153.48C104.506 152.308 106.401 151.101 108.333 149.852C119.988 142.363 130.255 147.374 133.976 148.575Z"
          fill="#D1D1D1"/>
    <path d="M147.715 69.2714C155.551 134.523 136.929 146.366 134.855 148.165C134.255 148.685 134.012 148.647 133.105 148.414L133.089 148.423C129.248 147.404 119.988 142.363 108.333 149.851C106.401 151.099 104.506 152.306 102.672 153.478C90.7821 161.019 81.1803 166.334 74.2628 163.249C68.3953 160.256 63.1048 157.665 58.3486 155.44C23.0456 138.982 15.9493 141.986 15.3206 142.346C16.0501 141.949 22.7425 138.239 31.7538 131.716C31.7844 131.698 31.8151 131.681 31.8217 131.657C43.8664 122.928 59.9968 109.172 71.5913 91.4767C79.4844 79.4439 87.2061 48.9396 102.105 42.9543C132.724 31.5317 146.444 55.9988 147.715 69.2714Z"
          fill="white"/>
    <path d="M113.858 68.1268C114.809 65.6171 114.716 63.2556 113.651 62.8524C112.587 62.4492 110.953 64.1568 110.002 66.6666C109.052 69.1764 109.145 71.5378 110.209 71.941C111.274 72.3443 112.908 70.6366 113.858 68.1268Z"
          fill="#D1D1D1"/>
    <path d="M133.354 71.3292C134.028 68.7313 133.681 66.3937 132.578 66.108C131.476 65.8222 130.037 67.6965 129.363 70.2943C128.69 72.8921 129.037 75.2297 130.139 75.5155C131.241 75.8013 132.681 73.927 133.354 71.3292Z"
          fill="#D1D1D1"/>
    <path d="M121.487 80.8673C121.327 80.8672 121.172 80.8124 121.048 80.7121C120.924 80.6118 120.837 80.4721 120.803 80.316C120.679 79.751 120.123 78.0791 119.243 77.8306C118.363 77.5821 116.636 78.5468 115.937 79.0529C115.787 79.1618 115.6 79.2065 115.416 79.1772C115.233 79.1479 115.069 79.0469 114.96 78.8965C114.851 78.7462 114.806 78.5587 114.835 78.3753C114.865 78.192 114.966 78.0278 115.116 77.9189C115.391 77.7196 117.857 75.9848 119.623 76.4831C121.465 77.0028 122.105 79.7111 122.171 80.0182C122.194 80.1205 122.193 80.2264 122.169 80.3283C122.145 80.4301 122.098 80.5253 122.032 80.6067C121.967 80.6882 121.883 80.7539 121.789 80.799C121.695 80.8441 121.591 80.8674 121.487 80.8673H121.487Z"
          fill="#D1D1D1"/>
</svg>
