<svg width="24" height="24" viewBox="0 0 24 24" fill="none" xmlns="http://www.w3.org/2000/svg">
<path d="M12 9.33352C10.1072 9.36242 7.91199 9.73147 6.34533 10.8076C6.13573 10.6078 5.88576 10.4567 5.61273 10.3645C5.33971 10.2723 5.05016 10.2414 4.76415 10.2738C4.47815 10.3063 4.20253 10.4013 3.9564 10.5523C3.71026 10.7034 3.4995 10.9068 3.33871 11.1486C3.17792 11.3903 3.07095 11.6645 3.02522 11.9523C2.97949 12.2401 2.99609 12.5345 3.07386 12.8151C3.15164 13.0957 3.28873 13.3559 3.47565 13.5775C3.66256 13.7991 3.89482 13.977 4.15633 14.0986C4.14102 14.3003 4.14102 14.5029 4.15633 14.7045C4.15633 17.789 7.70495 20.2952 12.083 20.2952C16.4609 20.2952 20.0096 17.789 20.0096 14.7045C20.0249 14.5029 20.0249 14.3003 20.0096 14.0986C20.3451 13.9297 20.6266 13.6681 20.8214 13.344C21.0163 13.02 21.1167 12.6466 21.1109 12.2672C21.0969 11.8796 20.9725 11.5044 20.7527 11.1868C20.5329 10.8691 20.227 10.6227 19.8721 10.4772C19.5171 10.3316 19.1281 10.2931 18.7521 10.3664C18.376 10.4397 18.0289 10.6216 17.7526 10.8902C16.2059 9.82537 13.8698 9.37414 12 9.33352ZM12 9.33352L12.654 4.3356C12.6653 4.28029 12.6873 4.22779 12.7188 4.18116M12 9.33352L12.7188 4.18116M12.7188 4.18116C12.7503 4.13453 12.7906 4.09469 12.8374 4.06395M12.7188 4.18116L12.8374 4.06395M12.8374 4.06395C12.8842 4.03321 12.9365 4.01218 12.9914 4.00208M12.8374 4.06395L12.9914 4.00208M12.9914 4.00208C13.0463 3.99198 13.1026 3.99302 13.1571 4.00512L16.3114 4.94397M12.9914 4.00208L16.3114 4.94397M16.3114 4.94397V5.51984C16.346 5.84548 16.494 6.14797 16.729 6.37301C16.9639 6.59806 17.2704 6.73092 17.5934 6.74775C17.9163 6.76457 18.2346 6.66427 18.4911 6.46483C18.7476 6.2654 18.9256 5.97989 18.993 5.65957C19.0604 5.33924 19.0129 5.00507 18.8589 4.71704C18.705 4.42902 18.4547 4.20599 18.153 4.088C17.8514 3.97001 17.518 3.96478 17.2129 4.07325C16.9078 4.18172 16.6508 4.39679 16.4881 4.67986L16.3114 4.94397ZM8.97997 16.8341C8.98671 16.8338 8.99333 16.836 8.99855 16.8403L9.01315 16.8518C9.88857 17.5021 10.9562 17.8316 12.0406 17.7864C13.1261 17.8423 14.1985 17.5234 15.082 16.8815C15.0958 16.8714 15.1089 16.8603 15.1211 16.8483C15.1287 16.8408 15.1389 16.8367 15.1495 16.8368C15.1547 16.8369 15.1599 16.838 15.1647 16.8401C15.169 16.8419 15.1729 16.8445 15.1763 16.8477C14.2805 17.5194 13.1843 17.8606 12.0699 17.8138C12.0605 17.8134 12.0511 17.8134 12.0417 17.8138C10.9351 17.8603 9.8464 17.5241 8.95411 16.8617L8.95414 16.8603C8.95447 16.8534 8.9573 16.847 8.96207 16.8422C8.96684 16.8373 8.97322 16.8345 8.97997 16.8341Z" stroke="#1D1D1D" stroke-width="1.5" stroke-linejoin="round"/>
<circle cx="15" cy="13" r="1" fill="#1D1D1D"/>
<circle cx="9" cy="13" r="1" fill="#1D1D1D"/>
</svg>
