<svg width="24" height="25" viewBox="0 0 24 25" fill="none" xmlns="http://www.w3.org/2000/svg">
<g clip-path="url(#clip0_1913_6214)">
<path d="M14.7996 11.2301C15.4624 11.2301 15.9996 10.6928 15.9996 10.0301C15.9996 9.36734 15.4624 8.83008 14.7996 8.83008C14.1369 8.83008 13.5996 9.36734 13.5996 10.0301C13.5996 10.6928 14.1369 11.2301 14.7996 11.2301Z" fill="#A2B2D8"/>
<path d="M9.2 11.2301C9.86274 11.2301 10.4 10.6928 10.4 10.0301C10.4 9.36734 9.86274 8.83008 9.2 8.83008C8.53726 8.83008 8 9.36734 8 10.0301C8 10.6928 8.53726 11.2301 9.2 11.2301Z" fill="#A2B2D8"/>
<path d="M12 16.8301C13.824 16.8301 15.376 15.5021 16 13.6301H8C8.624 15.5021 10.176 16.8301 12 16.8301Z" fill="#A2B2D8"/>
<path d="M11.992 4.03003C7.576 4.03003 4 7.61403 4 12.03C4 16.446 7.576 20.03 11.992 20.03C16.416 20.03 20 16.446 20 12.03C20 7.61403 16.416 4.03003 11.992 4.03003ZM12 18.43C8.464 18.43 5.6 15.566 5.6 12.03C5.6 8.49403 8.464 5.63003 12 5.63003C15.536 5.63003 18.4 8.49403 18.4 12.03C18.4 15.566 15.536 18.43 12 18.43Z" fill="#A2B2D8"/>
</g>
<defs>
<clipPath id="clip0_1913_6214">
<rect width="24" height="24" fill="white" transform="translate(0 0.0300293)"/>
</clipPath>
</defs>
</svg>
