<svg width="24" height="25" viewBox="0 0 24 25" fill="none" xmlns="http://www.w3.org/2000/svg">
<path fill-rule="evenodd" clip-rule="evenodd" d="M13.4804 7.5756C12.2265 8.13498 9.72052 9.29277 5.96243 11.049C5.35217 11.3092 5.03249 11.5639 5.00339 11.8129C4.95421 12.2337 5.44551 12.3994 6.11453 12.625C6.20553 12.6557 6.29982 12.6875 6.39648 12.7212C7.05469 12.9507 7.9401 13.2192 8.40039 13.2298C8.81791 13.2395 9.28392 13.0549 9.79841 12.676C13.3097 10.1337 15.1223 8.8487 15.236 8.821C15.3163 8.80146 15.4276 8.77688 15.503 8.84875C15.5783 8.92061 15.5709 9.0567 15.5629 9.09321C15.5143 9.31575 13.5857 11.2388 12.5877 12.234C12.2766 12.5443 12.0559 12.7643 12.0108 12.8146C11.9098 12.9272 11.8068 13.0337 11.7078 13.136C11.0963 13.7683 10.6377 14.2424 11.7332 15.0167C12.2596 15.3888 12.6808 15.6965 13.1011 16.0034C13.56 16.3387 14.0178 16.673 14.6101 17.0895C14.761 17.1956 14.9051 17.3058 15.0454 17.4131C15.5796 17.8215 16.0594 18.1884 16.6522 18.1299C16.9967 18.0959 17.3525 17.7485 17.5332 16.7123C17.9603 14.2635 18.7998 8.95776 18.9938 6.77137C19.0108 6.57982 18.9894 6.33467 18.9722 6.22705C18.9551 6.11943 18.9192 5.9661 18.7887 5.85259C18.6343 5.71817 18.3958 5.68982 18.2892 5.69174C17.8043 5.701 17.0604 5.97844 13.4804 7.5756Z" stroke="#1D1D1D" stroke-width="1.5" stroke-linejoin="round"/>
</svg>
