<svg width="24" height="25" viewBox="0 0 24 25" fill="none" xmlns="http://www.w3.org/2000/svg">
<path d="M20 7.23133C19.4116 7.49206 18.7795 7.66822 18.115 7.74785C18.7929 7.34196 19.313 6.6979 19.5582 5.93123C18.924 6.30752 18.2214 6.58093 17.4738 6.7275C16.8748 6.09049 16.0222 5.69165 15.078 5.69165C13.2656 5.69165 11.7956 7.16157 11.7956 8.97536C11.7956 9.23186 11.8252 9.48131 11.8802 9.7223C9.15106 9.58489 6.73337 8.27775 5.11407 6.29202C4.8322 6.77824 4.67013 7.34196 4.67013 7.94233C4.67013 9.08106 5.25007 10.0866 6.13019 10.675C5.59183 10.6574 5.08588 10.5101 4.64335 10.2642V10.3065C4.64335 11.8969 5.77433 13.2238 7.27667 13.5254C7.00044 13.6 6.71083 13.6395 6.41205 13.6395C6.20065 13.6395 5.99419 13.6198 5.79406 13.5817C6.21193 14.8853 7.42394 15.8352 8.86074 15.8606C7.73681 16.7414 6.32115 17.2664 4.78358 17.2664C4.51863 17.2664 4.2572 17.2509 4 17.2206C5.45301 18.1529 7.17801 18.6954 9.03127 18.6954C15.0702 18.6954 18.3715 13.6938 18.3715 9.35588C18.3715 9.21495 18.368 9.07261 18.3617 8.93167C19.0029 8.46801 19.5596 7.89089 19.9986 7.23345L20 7.23133Z" stroke="#1D1D1D" stroke-width="1.5" stroke-linejoin="round"/>
</svg>
