<svg width="20" height="20" viewBox="0 0 20 20" fill="none" xmlns="http://www.w3.org/2000/svg">
<path d="M15.0002 10C14.5418 10 14.1668 10.375 14.1668 10.8333V12.5H12.5002C12.0418 12.5 11.6668 12.875 11.6668 13.3333C11.6668 13.7917 12.0418 14.1667 12.5002 14.1667H15.0002C15.4585 14.1667 15.8335 13.7917 15.8335 13.3333V10.8333C15.8335 10.375 15.4585 10 15.0002 10ZM5.8335 7.5H7.50016C7.9585 7.5 8.3335 7.125 8.3335 6.66667C8.3335 6.20833 7.9585 5.83333 7.50016 5.83333H5.00016C4.54183 5.83333 4.16683 6.20833 4.16683 6.66667V9.16667C4.16683 9.625 4.54183 10 5.00016 10C5.4585 10 5.8335 9.625 5.8335 9.16667V7.5ZM17.5002 2.5H2.50016C1.5835 2.5 0.833496 3.25 0.833496 4.16667V15.8333C0.833496 16.75 1.5835 17.5 2.50016 17.5H17.5002C18.4168 17.5 19.1668 16.75 19.1668 15.8333V4.16667C19.1668 3.25 18.4168 2.5 17.5002 2.5ZM16.6668 15.8417H3.3335C2.87516 15.8417 2.50016 15.4667 2.50016 15.0083V4.99167C2.50016 4.53333 2.87516 4.15833 3.3335 4.15833H16.6668C17.1252 4.15833 17.5002 4.53333 17.5002 4.99167V15.0083C17.5002 15.4667 17.1252 15.8417 16.6668 15.8417Z" fill="#808A9D"/>
</svg>
